<?xml version="1.0" encoding="utf-8"?>
<!-- Generator: Adobe Illustrator 21.0.2, SVG Export Plug-In . SVG Version: 6.00 Build 0)  -->
<svg version="1.1" id="ebbe44b0-8647-4284-ac00-338a33aa24a5"
	 xmlns="http://www.w3.org/2000/svg" xmlns:xlink="http://www.w3.org/1999/xlink" x="0px" y="0px" viewBox="0 0 350 80"
	 style="enable-background:new 0 0 350 80;" xml:space="preserve">
<style type="text/css">
	.st0{fill:#FFFFFF;}
	.st1{font-family:'NeutraDisp-Titling';}
	.st2{font-size:80.7979px;}
	.st3{fill:none;stroke:#FFFFFF;stroke-width:3;stroke-miterlimit:10;}
	.st4{font-family:'Wingdings-Regular';}
	.st5{font-size:76.2409px;}
</style>
<title>Artboard 1</title>
<g>
	<text transform="matrix(1 0 0 1 96.8964 66.7279)" class="st0 st1 st2">o</text>
	<line class="st3" x1="106.9" y1="37" x2="152.1" y2="37"/>
	<line class="st3" x1="106.9" y1="42.6" x2="152.1" y2="42.6"/>
</g>
<text transform="matrix(1 0 0 1 43.5703 67.1117)" class="st0 st1 st2">C</text>
<text transform="matrix(1 0 0 1 155.8789 68.392)" class="st0 st4 st5"></text>
<path class="st0" d="M221.2,13.4h38.5v12.4h-23.8V56h25v12.4h-39.7L221.2,13.4L221.2,13.4z"/>
<text transform="matrix(1 0 0 1 263.3403 68.3441)" class="st0 st1 st2">T</text>
<line class="st3" x1="268.1" y1="29.7" x2="306.4" y2="29.7"/>
<line class="st3" x1="221.6" y1="37.8" x2="258.8" y2="37.8"/>
<line class="st3" x1="221.6" y1="43.4" x2="258.8" y2="43.4"/>
<line class="st3" x1="66.9" y1="62" x2="66.9" y2="16.8"/>
<line class="st3" x1="72.5" y1="62" x2="72.5" y2="16.8"/>
</svg>
